<?xml version="1.0" standalone="no"?>
<!DOCTYPE svg PUBLIC "-//W3C//DTD SVG 20010904//EN"
 "http://www.w3.org/TR/2001/REC-SVG-20010904/DTD/svg10.dtd">
<svg version="1.0" xmlns="http://www.w3.org/2000/svg"
 width="1024.000000pt" height="1024.000000pt" viewBox="0 0 1024.000000 1024.000000"
 preserveAspectRatio="xMidYMid meet">
<metadata>
Created by potrace 1.11, written by Peter Selinger 2001-2013
</metadata>
<g transform="translate(0.000000,1024.000000) scale(0.100000,-0.100000)"
fill="#000000" stroke="none">
<path d="M4759 10236 c-2 -2 -42 -7 -89 -11 -107 -8 -151 -13 -280 -31 -107
-15 -289 -48 -385 -70 -60 -14 -117 -27 -125 -29 -401 -89 -993 -333 -1390
-572 -557 -337 -1047 -773 -1434 -1278 -42 -55 -80 -104 -84 -110 -36 -46
-173 -252 -229 -345 -159 -264 -230 -406 -393 -785 -17 -40 -88 -242 -118
-335 -91 -284 -185 -732 -206 -975 -3 -33 -9 -96 -13 -140 -10 -101 -10 -765
-1 -866 10 -103 18 -177 24 -219 3 -19 7 -53 10 -75 12 -87 47 -277 79 -425 2
-8 15 -60 29 -115 15 -55 29 -109 31 -119 11 -46 71 -231 112 -346 403 -1118
1182 -2060 2205 -2668 242 -144 472 -256 743 -364 119 -48 438 -155 485 -163
18 -3 37 -8 42 -11 4 -3 16 -7 25 -9 10 -2 68 -16 128 -31 128 -30 119 -28
255 -54 88 -16 223 -36 365 -55 115 -15 265 -20 575 -20 314 0 419 4 550 20
19 2 60 7 90 10 30 4 132 20 225 36 94 16 184 32 200 35 160 28 658 177 780
234 11 5 38 16 60 23 109 39 416 185 591 282 106 59 449 277 464 294 3 4 16
14 31 23 25 16 259 197 269 207 3 4 34 31 70 61 128 107 344 319 475 465 402
446 721 961 947 1525 91 226 195 556 234 744 41 201 51 252 60 306 53 337 59
428 59 845 0 307 -6 463 -20 570 -3 17 -7 53 -11 80 -35 292 -107 615 -205
921 -39 124 -105 306 -133 369 -8 17 -32 73 -55 126 -185 425 -494 915 -801
1269 -35 41 -76 88 -90 104 -59 69 -306 310 -411 402 -237 208 -394 324 -709
526 -152 97 -457 255 -670 345 -263 112 -667 243 -859 279 -12 3 -53 12 -89
20 -37 9 -78 17 -92 19 -14 2 -63 10 -110 19 -89 16 -141 23 -300 42 -36 4
-76 9 -90 11 -35 5 -816 14 -821 9z m731 -570 c30 -4 74 -9 97 -12 23 -3 64
-7 90 -10 57 -5 109 -12 143 -19 14 -2 41 -7 60 -10 388 -60 854 -211 1245
-405 604 -298 1103 -698 1539 -1231 125 -153 297 -404 403 -590 89 -156 263
-511 263 -538 0 -4 9 -25 19 -47 17 -34 118 -324 126 -357 1 -7 5 -19 8 -27
16 -40 98 -383 112 -470 7 -41 12 -74 25 -150 5 -30 12 -82 16 -115 3 -33 8
-73 9 -90 26 -234 27 -783 1 -935 -3 -14 -7 -52 -10 -85 -3 -33 -8 -69 -10
-80 -2 -11 -7 -42 -10 -70 -4 -27 -21 -117 -37 -200 -35 -169 -32 -156 -47
-210 -6 -22 -13 -51 -16 -65 -13 -69 -98 -328 -159 -485 -112 -288 -302 -647
-475 -900 -455 -662 -1038 -1169 -1747 -1520 -300 -149 -581 -253 -900 -335
-162 -41 -449 -95 -566 -105 -35 -3 -73 -8 -84 -10 -131 -27 -766 -27 -945 0
-14 2 -50 7 -80 10 -64 7 -221 31 -274 41 -297 57 -649 158 -861 249 -16 7
-74 31 -127 54 -236 101 -465 226 -700 382 -81 53 -153 102 -160 108 -7 5 -80
64 -163 129 -239 190 -465 408 -625 602 -25 30 -53 64 -63 75 -35 37 -199 260
-262 355 -199 298 -371 641 -499 990 -35 98 -107 331 -126 410 -6 25 -13 54
-15 65 -3 11 -8 33 -11 49 -2 16 -7 32 -9 35 -2 4 -6 26 -10 51 -4 25 -8 47
-10 50 -2 3 -6 24 -9 46 -4 22 -8 50 -11 63 -6 33 -26 169 -31 216 -2 22 -6
54 -9 70 -27 173 -27 740 1 969 5 46 32 233 40 286 12 79 65 317 89 403 14 51
28 101 30 111 3 11 21 69 41 130 124 376 305 750 521 1078 70 107 263 372 282
388 3 3 33 37 66 75 119 139 306 331 434 444 345 307 784 589 1181 761 41 18
89 38 105 45 189 83 641 222 805 249 19 3 46 8 60 11 79 16 212 37 310 50 104
12 130 15 230 21 58 4 106 8 108 9 6 6 546 -3 602 -9z"/>
<path d="M4624 8652 c-120 -50 -196 -156 -206 -290 l-3 -33 -380 -145 c-209
-80 -389 -150 -400 -155 -11 -5 -194 -75 -407 -157 l-387 -149 -23 24 c-86 93
-238 121 -358 67 -135 -61 -211 -215 -174 -357 25 -97 102 -187 184 -217 l35
-12 0 -838 c0 -461 -3 -841 -7 -845 -3 -3 -21 -9 -40 -11 -257 -38 -497 -233
-597 -486 -202 -509 170 -1063 719 -1069 97 -2 217 18 286 47 20 8 38 14 39
12 3 -3 236 -406 788 -1362 l156 -270 -40 -40 c-48 -49 -105 -162 -115 -231
-24 -157 21 -309 125 -417 118 -122 316 -170 480 -117 141 46 252 155 302 297
14 39 21 85 22 145 l1 87 56 21 c133 49 402 149 749 278 l374 140 48 -43 c158
-142 403 -93 494 99 14 30 25 65 25 78 0 24 4 26 205 63 30 5 252 48 495 95
118 22 226 43 240 46 14 2 57 10 95 18 39 7 110 21 160 30 l89 17 15 -23 c27
-43 88 -96 137 -120 69 -33 187 -33 261 0 100 44 170 147 180 260 12 149 -75
279 -219 325 l-53 16 -29 173 c-15 94 -30 181 -32 192 -2 11 -17 101 -34 200
-17 99 -33 194 -36 210 -16 90 -34 202 -34 217 0 11 19 27 53 44 67 35 165
135 198 204 85 176 58 380 -68 524 -36 40 -139 116 -158 116 -28 0 -36 27 -26
87 6 32 13 76 16 98 3 23 7 50 9 61 2 12 7 45 11 74 4 29 8 60 10 69 1 9 6 41
11 71 4 30 8 57 9 60 1 3 5 30 9 60 4 30 11 78 16 105 6 28 12 73 15 100 5 43
36 239 49 315 3 14 5 30 5 36 1 6 22 14 49 16 152 16 306 135 369 284 24 54
44 159 38 196 -2 13 -6 45 -10 71 -4 27 -15 69 -26 93 -133 312 -529 390 -768
152 l-58 -59 -64 30 c-61 27 -353 157 -1134 503 -198 87 -388 172 -423 189
-35 16 -65 29 -67 29 -3 0 -39 16 -81 35 -41 19 -77 35 -79 35 -2 0 -39 16
-82 36 -43 20 -116 53 -163 73 -47 21 -160 71 -252 111 l-168 74 -1 38 c-1 21
-2 41 -3 46 -1 4 -6 23 -10 42 -20 84 -84 161 -171 202 -49 23 -73 28 -130 27
-42 0 -87 -7 -111 -17z m-106 -520 c22 -21 54 -44 72 -52 l32 -13 -6 -86 c-11
-136 -15 -182 -20 -236 -3 -27 -8 -86 -11 -130 -4 -44 -8 -94 -10 -110 -2 -17
-7 -77 -10 -135 -4 -58 -8 -109 -9 -115 0 -5 -32 -17 -71 -28 -296 -78 -444
-413 -299 -677 l25 -44 -565 -565 -564 -564 -64 40 c-101 64 -200 103 -296
117 -19 2 -37 8 -40 11 -4 4 -7 382 -8 841 l0 835 59 31 c104 56 164 153 169
270 1 39 0 38 121 84 23 9 51 20 62 25 11 5 139 54 285 110 146 55 321 123
390 150 69 27 258 100 420 163 162 63 296 114 297 115 1 1 20 -16 41 -37z
m707 -84 c105 -47 210 -94 235 -105 25 -11 383 -170 795 -353 413 -183 773
-343 800 -355 28 -13 84 -37 125 -55 41 -18 98 -43 125 -56 28 -12 82 -36 120
-53 61 -26 70 -33 67 -53 -2 -13 -5 -24 -5 -24 -2 -2 -186 -12 -572 -29 -66
-3 -160 -7 -210 -10 -49 -2 -144 -7 -210 -10 -66 -3 -165 -8 -220 -10 -99 -5
-168 -9 -420 -20 -71 -3 -166 -8 -210 -10 -229 -12 -391 -18 -483 -19 l-104
-1 -15 45 c-16 47 -66 127 -107 172 -34 37 -140 105 -177 113 l-31 7 7 92 c3
50 8 109 10 131 2 22 7 70 10 108 10 126 16 202 20 242 2 22 7 79 10 127 10
137 2 120 80 153 23 9 57 31 75 49 33 32 37 33 65 21 17 -7 116 -51 220 -97z
m2287 -1281 c42 -112 126 -206 234 -260 42 -22 51 -30 48 -49 -8 -49 -34 -225
-39 -263 -3 -22 -10 -65 -15 -95 -5 -30 -12 -75 -15 -100 -3 -25 -8 -56 -10
-70 -2 -14 -7 -43 -10 -65 -3 -23 -7 -50 -9 -62 -5 -26 -13 -75 -21 -133 -3
-25 -10 -70 -15 -100 -5 -30 -11 -73 -14 -95 -12 -87 -18 -115 -25 -119 -4 -3
-28 -7 -54 -10 -56 -7 -135 -39 -193 -78 -88 -59 -173 -185 -189 -279 -8 -48
-22 -56 -108 -58 -38 -1 -77 -4 -86 -6 -10 -2 -67 -6 -127 -10 -60 -4 -127 -8
-149 -10 -22 -2 -87 -7 -145 -10 -58 -4 -121 -9 -140 -10 -19 -2 -91 -7 -160
-10 l-125 -7 -24 46 c-56 108 -196 177 -318 157 -37 -7 -39 -6 -74 49 -35 53
-228 363 -260 418 -9 15 -106 171 -216 347 -110 176 -212 340 -227 365 -15 25
-45 73 -67 108 l-39 62 43 53 c40 49 89 149 101 207 5 25 8 26 93 29 48 2 111
4 138 6 28 1 120 6 205 9 85 4 187 9 225 11 39 2 131 6 205 10 74 3 173 8 220
10 47 2 139 7 205 10 66 3 167 7 225 10 58 3 155 7 215 10 61 3 153 8 205 10
259 12 365 17 367 18 1 1 30 2 64 2 l63 0 18 -48z m-3140 -406 c92 -53 237
-73 339 -46 29 8 56 12 60 10 4 -3 28 -40 55 -82 26 -43 62 -100 79 -128 18
-27 132 -212 255 -410 122 -198 233 -376 245 -395 49 -76 145 -231 145 -235 0
-2 14 -25 31 -51 l32 -46 -22 -37 c-12 -20 -27 -48 -32 -63 -6 -16 -14 -29
-17 -29 -28 -5 -2156 -3 -2164 2 -6 4 -12 22 -14 40 -8 69 -56 196 -105 276
-27 45 -49 84 -49 86 0 5 1121 1127 1126 1127 1 0 18 -9 36 -19z m2829 -1643
c51 -154 204 -277 379 -303 45 -7 59 -17 61 -45 0 -8 2 -22 4 -30 4 -19 102
-601 111 -654 3 -21 7 -46 9 -55 1 -9 6 -36 10 -61 4 -25 9 -54 12 -65 2 -11
6 -40 9 -65 5 -45 4 -45 -43 -76 -54 -34 -108 -114 -120 -178 -10 -48 0 -45
-373 -112 -14 -2 -47 -9 -75 -14 -69 -14 -84 -17 -210 -41 -107 -20 -136 -26
-183 -34 -12 -2 -30 -6 -40 -9 -9 -3 -35 -7 -57 -11 -22 -3 -47 -7 -55 -10 -8
-2 -31 -6 -50 -9 -19 -3 -46 -8 -60 -11 -45 -10 -175 -35 -181 -35 -3 0 -20
20 -37 44 -35 49 -112 102 -160 112 -36 7 -39 13 -47 114 -3 41 -8 89 -10 105
-2 17 -7 57 -10 90 -4 33 -8 74 -10 90 -4 30 -15 143 -20 200 -2 17 -5 53 -9
80 -3 28 -8 70 -10 95 -3 25 -10 90 -16 145 -6 55 -13 118 -15 140 -3 22 -7
67 -10 100 -3 33 -8 74 -10 90 -2 17 -7 59 -10 95 l-6 66 50 32 c57 37 106 99
123 154 7 23 18 38 27 39 9 0 23 2 32 4 9 1 67 6 130 10 63 3 137 8 164 10 28
2 88 7 135 10 47 3 114 8 150 10 163 12 220 16 294 21 44 2 82 6 84 9 11 11
31 -10 43 -47z m-1640 -82 c21 -62 103 -139 176 -166 42 -15 61 -27 61 -39 -1
-9 2 -38 5 -66 4 -27 9 -72 12 -100 2 -27 7 -70 10 -95 2 -25 7 -72 10 -105 3
-33 8 -71 10 -85 3 -25 15 -139 20 -195 2 -16 5 -52 9 -80 3 -27 8 -75 11
-105 4 -55 13 -132 20 -180 2 -14 7 -58 10 -99 4 -41 9 -84 11 -95 2 -11 6
-56 10 -101 l6 -80 -34 -18 c-18 -9 -41 -22 -50 -29 -19 -14 -28 -10 -148 62
-41 25 -86 51 -100 58 -14 7 -41 22 -60 33 -56 34 -400 233 -450 261 -44 25
-336 193 -780 451 -123 71 -243 140 -265 152 -22 13 -123 71 -225 130 -102 59
-203 118 -225 130 -22 13 -80 46 -130 75 -49 29 -106 61 -125 72 -19 11 -36
21 -38 23 -2 2 3 18 11 36 16 40 44 149 46 185 1 7 325 10 1090 10 l1089 0 13
-40z m-2193 -425 c75 -43 153 -87 172 -98 19 -11 60 -35 90 -53 54 -32 85 -50
155 -90 19 -11 121 -70 227 -131 106 -61 209 -121 228 -132 19 -10 152 -87
295 -170 143 -82 274 -158 290 -167 17 -9 131 -76 255 -147 124 -72 326 -189
450 -261 124 -71 224 -134 223 -139 -1 -6 -3 -28 -4 -51 l-3 -40 -85 -32 c-47
-17 -120 -44 -161 -59 -67 -26 -210 -79 -355 -132 -27 -11 -169 -64 -315 -118
l-265 -99 -18 21 c-115 140 -222 197 -374 203 -50 2 -101 -2 -128 -10 l-44
-14 -207 357 c-114 196 -221 381 -238 411 -31 55 -149 261 -166 290 -5 8 -30
51 -55 95 -25 44 -50 87 -55 95 -15 25 -164 282 -182 315 -44 78 -43 75 -20
91 29 20 132 127 132 136 0 17 26 5 158 -71z"/>
</g>
</svg>
